# xmcd
# 
# Track frame offsets:
#     150
#     16969
#     42861
#     59681
# 
# Disc length: 1135
# 
# Revision: 0
# Processed by: cddbd v1.5.2PL0 Copyright (c) Steve Scherf et al.
# Submitted via: fre:ac v1.0.17
# 
DISCID=2e046d04
DTITLE=N± - N±：ハロ→レッツゴ→→→
DYEAR=0
DGENRE=
TTITLE0=ハロ→レッツゴ→→→
TTITLE1=さんきゅ～
TTITLE2=ハロ→レッツゴ→→→(instrumental)
TTITLE3=さんきゅ～(instrumental)
EXTD=
EXTT0=
EXTT1=
EXTT2=
EXTT3=
PLAYORDER=
